<?xml version="1.0" standalone="no"?>
<!DOCTYPE svg PUBLIC "-//W3C//DTD SVG 20010904//EN"
 "http://www.w3.org/TR/2001/REC-SVG-20010904/DTD/svg10.dtd">
<svg version="1.0" xmlns="http://www.w3.org/2000/svg"
 width="2700.000000pt" height="1802.000000pt" viewBox="0 0 2700.000000 1802.000000"
 preserveAspectRatio="xMidYMid meet">
<metadata>
Created by potrace 1.15, written by Peter Selinger 2001-2017
</metadata>
<g transform="translate(0.000000,1802.000000) scale(0.100000,-0.100000)"
fill="#000000" stroke="none">
<path d="M14933 12123 c3 -27 10 -73 16 -103 6 -30 13 -70 16 -89 7 -44 12
-51 35 -51 11 0 20 10 24 25 4 14 11 23 15 20 5 -3 8 6 6 20 -1 14 2 25 6 25
5 0 9 7 9 15 0 8 -6 15 -12 15 -10 0 -10 2 0 9 10 6 9 10 -7 14 -12 3 -19 2
-16 -3 6 -10 -24 -22 -36 -14 -5 3 -9 20 -9 39 0 19 -4 36 -9 40 -10 6 -7 37
5 57 4 6 3 8 -3 5 -6 -4 -13 0 -17 8 -3 8 -10 15 -17 15 -7 0 -9 -16 -6 -47z"/>
<path d="M17106 11170 c-9 -61 -15 -114 -12 -117 4 -5 173 -62 183 -63 1 0 1
9 0 20 -1 11 -6 20 -12 20 -5 0 -1 7 9 15 11 8 15 15 10 15 -6 0 -9 13 -6 30
3 22 0 30 -11 30 -8 0 -17 5 -19 12 -2 6 -19 13 -37 14 -38 2 -81 38 -75 62 2
9 1 30 -4 46 -6 23 -11 8 -26 -84z"/>
<path d="M11799 10971 c-186 -51 -349 -202 -410 -379 -16 -46 -82 -410 -134
-742 -29 -183 -57 -361 -120 -755 -103 -646 -115 -729 -115 -802 1 -161 62
-313 170 -422 36 -36 79 -74 96 -83 l31 -17 71 192 c39 106 141 390 227 632
86 242 163 458 171 480 23 57 174 478 249 690 35 99 85 239 110 310 62 170
128 356 170 478 19 53 36 101 39 106 17 26 93 262 87 266 -5 2 -59 11 -122 20
-63 8 -139 20 -169 26 -107 20 -279 20 -351 0z"/>
<path d="M15071 10950 c-75 -11 -194 -73 -250 -130 -25 -26 -86 -97 -136 -158
-49 -61 -95 -113 -102 -116 -6 -2 -62 13 -125 35 -311 109 -441 150 -506 159
-178 25 -365 -40 -497 -174 -90 -90 -118 -145 -211 -408 -41 -117 -82 -231
-90 -253 -8 -22 -19 -51 -23 -65 -5 -14 -42 -115 -84 -225 -41 -110 -114 -308
-161 -440 -48 -132 -100 -276 -116 -320 -86 -236 -193 -547 -205 -600 -18 -75
-13 -219 10 -295 32 -107 88 -197 173 -277 91 -85 121 -98 702 -298 69 -24
163 -58 210 -75 47 -17 110 -40 140 -50 31 -10 92 -32 135 -48 44 -17 143 -54
220 -82 77 -28 163 -60 190 -70 66 -26 340 -125 440 -161 44 -15 145 -51 225
-79 80 -28 190 -66 245 -85 55 -19 179 -61 275 -95 96 -34 189 -65 205 -70 17
-5 86 -30 155 -55 331 -123 425 -141 558 -111 95 21 144 41 218 88 132 82 193
175 278 418 111 323 185 528 283 790 53 140 119 325 148 410 29 85 85 247 125
360 166 476 172 503 146 654 -29 168 -132 328 -265 413 -60 38 -156 77 -391
159 -85 29 -176 61 -202 71 l-48 18 0 171 c0 138 -4 186 -20 248 -46 181 -161
295 -365 362 -38 13 -106 36 -150 52 -44 16 -127 45 -185 65 -111 38 -395 137
-595 207 -188 67 -241 76 -354 60z m291 -1333 c313 -82 568 -289 702 -571 76
-158 106 -292 107 -472 2 -334 -163 -661 -430 -858 -387 -284 -894 -283 -1276
1 -372 277 -518 722 -388 1183 19 68 89 211 141 288 160 234 436 406 727 451
108 17 308 6 417 -22z"/>
<path d="M14955 9250 c-193 -39 -392 -195 -474 -374 -53 -113 -65 -170 -64
-306 0 -116 2 -132 32 -213 80 -220 228 -363 457 -439 96 -32 308 -32 399 -1
196 67 353 208 426 381 63 153 75 313 34 456 -32 110 -59 164 -128 252 -130
166 -319 255 -537 253 -58 -1 -123 -5 -145 -9z"/>
<path d="M10219 10541 c-158 -36 -251 -83 -337 -170 -115 -114 -175 -259 -174
-416 1 -45 17 -167 37 -280 82 -458 107 -597 199 -1135 13 -80 28 -171 31
-202 4 -32 10 -58 14 -58 4 0 18 66 30 148 47 311 97 620 112 697 5 28 20 122
34 210 14 88 29 185 35 215 5 30 21 134 35 230 14 96 29 200 35 230 9 56 17
103 45 290 9 58 23 138 31 178 13 69 12 93 -4 91 -4 -1 -59 -13 -123 -28z"/>
<path d="M19065 9773 c-42 -120 -124 -353 -182 -518 -142 -407 -160 -457 -279
-787 -140 -388 -225 -632 -418 -1206 -168 -497 -236 -694 -378 -1092 -44 -124
-104 -295 -133 -380 -30 -85 -67 -193 -84 -240 -76 -213 -201 -582 -201 -592
0 -17 30 12 31 31 0 9 3 11 5 5 3 -8 17 -7 47 3 31 11 47 12 59 4 23 -15 25
-14 31 8 3 13 1 18 -8 14 -8 -2 -18 5 -24 16 -9 16 -7 23 10 35 12 8 28 12 35
9 8 -3 14 1 14 11 0 9 7 19 16 23 8 3 14 15 13 27 -2 34 0 39 14 28 11 -9 13
-4 11 23 -2 19 1 37 6 40 6 4 10 14 10 24 0 11 7 18 16 17 9 0 19 5 21 12 3 7
-5 12 -19 13 l-23 1 23 6 c13 4 23 10 23 15 -3 27 1 36 17 40 16 4 16 5 0 6
-19 1 -26 21 -8 21 6 0 10 6 10 14 0 8 5 16 10 18 6 2 13 17 16 33 8 48 15 65
26 65 6 0 6 6 -2 15 -10 12 -9 15 8 15 15 0 19 5 15 20 -3 11 -10 20 -15 20
-5 0 -3 7 5 15 9 8 13 25 10 37 -4 19 -3 20 6 8 9 -13 11 -13 11 2 0 9 6 19
13 21 9 4 9 6 0 6 -7 1 -10 8 -6 17 5 13 7 13 14 2 6 -9 9 -3 9 17 l1 30 10
-25 c9 -22 12 -23 20 -9 5 10 5 28 0 45 -5 16 -12 48 -14 71 -4 34 -2 41 10
36 13 -5 13 -3 3 17 -7 12 -8 20 -2 16 11 -7 25 29 22 61 0 12 5 25 13 30 25
15 46 57 43 89 -1 22 2 30 10 27 9 -3 11 3 7 18 -4 15 -3 20 5 15 7 -4 12 -1
12 9 0 9 4 14 9 10 19 -11 24 18 6 32 -17 12 -17 13 -2 13 11 0 17 8 17 25 0
14 4 25 9 25 5 0 9 19 10 43 0 23 1 58 1 78 0 25 8 42 25 57 23 21 30 38 26
71 -2 7 2 11 6 8 5 -3 15 8 22 25 12 25 11 32 0 39 -9 6 -10 9 -2 9 6 0 13 12
15 28 2 16 8 26 17 24 7 -1 19 5 27 15 16 22 18 33 3 33 -5 0 -7 -5 -3 -12 4
-7 3 -8 -4 -4 -16 10 -15 26 2 26 16 0 28 60 12 60 -6 0 -4 6 6 13 9 7 19 34
23 61 4 27 14 50 22 53 12 5 12 7 1 14 -10 7 -11 9 0 9 7 0 10 4 7 10 -3 6 1
7 9 4 11 -4 16 0 16 11 0 12 -5 15 -16 11 -14 -5 -15 -4 -4 9 7 8 16 12 21 9
13 -8 11 10 -3 25 -11 11 -10 13 4 8 14 -5 16 -1 12 26 -11 69 -9 91 8 95 9 2
18 -5 21 -15 4 -15 5 -14 6 4 0 12 7 24 14 26 9 4 8 8 -3 16 -10 7 -11 11 -2
11 6 0 12 7 12 15 0 8 5 15 11 15 8 0 10 12 6 35 -4 21 -2 35 5 35 5 0 7 7 4
16 -4 11 -2 15 8 11 8 -3 17 1 20 9 3 8 2 12 -3 9 -5 -3 -12 -1 -16 5 -3 6 1
13 9 16 18 7 22 54 4 54 -6 0 -8 3 -5 6 4 4 14 1 24 -7 11 -9 14 -10 9 -1 -4
7 -2 12 6 13 7 0 3 4 -9 9 -23 9 -32 40 -13 40 6 0 10 -5 10 -12 0 -22 11 0
15 30 2 17 16 49 31 71 20 30 26 53 26 86 -1 34 4 50 18 62 13 12 18 24 14 40
-4 14 -2 23 5 23 6 0 11 -12 11 -27 1 -26 1 -27 12 -8 6 11 16 23 22 27 7 5 4
8 -6 8 -27 0 -31 18 -9 46 11 15 18 31 15 36 -3 5 6 20 22 33 17 15 25 29 21
39 -4 11 0 19 11 23 38 15 56 63 22 60 -12 -1 -20 -8 -20 -19 0 -10 -7 -18
-15 -18 -26 0 -17 40 13 53 39 17 52 32 52 61 0 14 4 27 10 31 5 3 7 12 3 20
-3 8 0 15 6 15 6 0 11 8 12 18 0 16 1 16 7 -1 7 -16 8 -16 24 2 9 11 14 28 11
39 -2 11 0 29 6 41 9 15 8 25 0 39 -10 16 -7 24 20 49 17 17 31 37 31 46 0 9
5 19 12 23 7 4 8 3 4 -4 -4 -7 -1 -12 8 -12 18 0 29 17 31 47 1 24 -20 32 -28
11 -2 -7 -4 2 -5 21 0 21 6 41 16 50 10 9 26 29 36 45 12 20 21 25 26 16 5 -8
9 -6 12 7 3 10 -1 24 -9 31 -7 7 -13 20 -12 30 0 11 2 12 6 4 3 -9 13 -4 30
15 14 15 21 29 15 31 -16 5 -2 41 19 47 11 4 17 11 14 16 -4 5 -2 9 3 9 5 0 7
11 4 25 -2 14 -8 23 -12 20 -5 -3 -7 2 -6 12 2 9 11 19 21 23 13 5 15 9 7 14
-15 9 -6 26 11 22 7 -1 9 -1 5 1 -11 6 -10 41 1 47 4 3 11 2 15 -1 4 -4 14 -8
22 -9 14 -2 14 0 1 14 -8 9 -12 23 -10 30 3 6 0 12 -6 12 -6 0 -11 5 -11 10 0
7 7 7 22 -1 18 -10 20 -9 15 5 -4 9 -2 16 2 16 15 0 22 32 10 46 -7 9 -7 14
-1 14 5 0 12 9 15 21 3 12 10 18 17 14 11 -7 42 54 34 67 -3 5 0 8 5 8 6 0 11
7 11 15 0 8 -4 15 -9 15 -10 0 -9 26 2 36 4 4 7 20 7 35 0 18 6 30 19 34 16 5
35 37 32 56 0 4 11 19 24 33 14 15 28 38 31 51 3 14 10 25 14 25 4 0 11 7 14
16 3 8 2 13 -3 10 -4 -3 -16 1 -26 8 -17 13 -17 15 3 58 12 24 23 56 24 70 1
14 7 24 13 22 5 -2 16 5 23 16 10 17 9 25 -5 47 -10 15 -12 24 -5 20 6 -5 12
-4 12 2 0 6 -4 11 -9 11 -4 0 -6 11 -3 25 2 15 0 25 -7 25 -6 0 -11 11 -11 25
0 15 5 24 13 23 7 -2 13 9 15 25 2 19 -1 27 -12 27 -9 0 -16 8 -16 17 0 15 -2
14 -15 -3 -14 -18 -14 -18 -15 5 0 21 -2 22 -17 10 -15 -13 -16 -11 -9 14 4
16 2 27 -4 27 -5 0 -10 -6 -10 -12 0 -7 -5 -5 -11 5 -8 14 -8 22 0 30 19 19
12 28 -11 16 -27 -14 -29 -14 -38 1 -4 6 -42 -87 -85 -207z"/>
<path d="M11969 7113 c-43 -111 -65 -184 -57 -189 15 -9 25 6 51 75 l24 64 6
-39 c4 -22 7 -60 7 -86 0 -32 4 -48 13 -48 7 0 37 25 67 55 29 30 55 53 57 51
2 -1 -6 -29 -17 -61 -24 -69 -25 -85 -6 -85 9 0 26 33 45 85 44 122 46 131 25
139 -13 5 -34 -9 -79 -54 -33 -33 -64 -60 -68 -60 -4 0 -8 26 -8 58 -1 31 -4
70 -8 87 -8 40 -38 45 -52 8z"/>
<path d="M10645 7088 c-13 -56 -32 -198 -27 -203 14 -13 21 -1 32 53 6 31 14
64 17 72 6 17 11 5 38 -92 9 -32 20 -58 23 -58 4 0 27 29 51 65 24 36 46 65
49 65 2 0 1 -31 -3 -70 -6 -60 -5 -70 9 -70 9 0 16 8 16 18 1 9 7 58 14 107
14 88 11 104 -16 105 -4 0 -28 -32 -54 -70 -25 -39 -49 -68 -54 -65 -4 3 -16
35 -25 72 -22 85 -58 121 -70 71z"/>
<path d="M12216 6962 c-9 -15 9 -30 38 -34 16 -1 31 -8 33 -14 3 -8 -10 -10
-41 -7 -39 5 -46 2 -61 -20 -21 -32 -7 -64 33 -72 15 -4 35 -11 46 -16 24 -14
31 -5 50 60 17 58 11 82 -24 101 -22 12 -67 13 -74 2z"/>
<path d="M12516 6935 c-9 -21 -16 -41 -16 -46 0 -12 -2 -12 -39 7 -18 9 -42
13 -56 10 -59 -15 -85 -91 -46 -133 17 -18 108 -49 117 -40 2 2 20 52 41 110
26 79 33 111 25 119 -8 8 -15 0 -26 -27z"/>
<path d="M12555 6817 c-30 -26 -38 -84 -16 -111 16 -19 68 -34 94 -28 28 7 16
38 -13 34 -27 -3 -70 22 -58 33 4 4 26 0 50 -10 24 -9 45 -17 47 -17 9 0 21
29 21 55 0 61 -75 88 -125 44z"/>
<path d="M12795 6707 c-4 -35 -5 -73 -3 -83 5 -30 34 -22 67 19 l30 38 3 -57
c2 -33 8 -59 15 -61 7 -3 34 23 60 57 57 74 60 80 36 80 -10 0 -29 -17 -43
-37 -24 -35 -25 -36 -28 -12 -11 102 -22 110 -68 50 l-29 -40 -5 51 c-7 75
-27 72 -35 -5z"/>
<path d="M13247 6692 c-3 -9 -21 -62 -41 -116 -20 -55 -36 -101 -36 -103 0 -2
8 -3 18 -3 13 0 23 13 32 40 16 49 32 64 60 55 24 -8 26 -32 5 -82 -19 -44
-19 -53 -1 -53 8 0 21 19 31 42 31 78 18 128 -32 128 -27 0 -27 7 -7 76 3 14
0 23 -9 27 -9 3 -17 -1 -20 -11z"/>
<path d="M13540 6589 c-58 -21 -76 -108 -40 -187 36 -79 58 -102 97 -102 47 0
157 54 183 89 26 38 26 91 -1 125 -19 24 -28 27 -70 25 -41 -2 -52 1 -73 24
-14 15 -29 27 -35 27 -5 0 -15 2 -23 4 -7 3 -24 0 -38 -5z"/>
<path d="M10316 6471 c-3 -5 -15 -39 -27 -75 -11 -37 -23 -64 -27 -62 -5 3
-24 28 -42 55 -50 73 -91 81 -89 18 0 -18 8 -66 17 -107 13 -57 21 -76 36 -78
16 -4 17 1 11 47 -8 62 3 65 39 12 45 -65 64 -60 81 19 12 56 18 57 35 4 10
-29 24 -50 33 -52 22 -4 21 44 -1 148 -14 63 -20 75 -39 78 -11 2 -24 -1 -27
-7z"/>
<path d="M10596 6429 c-14 -17 -26 -35 -26 -41 0 -5 -13 4 -30 22 -26 27 -34
31 -62 25 -46 -10 -66 -30 -51 -54 7 -11 8 -23 2 -32 -16 -26 -10 -58 16 -75
23 -15 30 -15 73 -2 38 13 48 20 52 43 l5 27 19 -20 c25 -29 63 -34 116 -18
40 12 46 17 50 47 5 33 6 33 18 12 21 -38 84 -46 129 -17 18 11 22 22 19 46
-4 35 -12 40 -103 52 -51 6 -53 6 -59 -21 l-7 -28 -14 33 c-12 31 -16 32 -67
32 -48 0 -57 -3 -80 -31z"/>
<path d="M13991 6418 c-26 -70 -59 -167 -65 -192 -6 -25 -5 -28 13 -23 12 3
27 -3 37 -14 21 -24 65 -24 93 -1 26 21 41 70 30 99 -9 25 -64 57 -85 49 -18
-7 -18 15 0 59 8 18 12 36 8 39 -11 12 -23 6 -31 -16z"/>
<path d="M14491 6223 c-15 -13 -29 -49 -46 -122 -22 -91 -24 -107 -11 -119 21
-21 36 -6 34 34 -1 27 6 42 30 67 l31 31 23 -21 c13 -12 35 -25 51 -28 38 -10
40 -17 17 -70 -26 -60 -26 -85 0 -85 15 0 20 7 20 26 0 42 70 133 125 161 27
15 30 14 43 -6 25 -37 42 -26 42 27 0 26 5 53 11 59 8 8 8 15 -2 25 -14 15
-90 10 -161 -12 -33 -10 -43 -8 -97 20 -70 35 -81 36 -110 13z"/>
<path d="M14895 6055 c-25 -24 -33 -68 -16 -93 4 -7 23 -21 41 -30 19 -9 36
-23 38 -29 6 -21 -42 -15 -71 8 -21 16 -31 18 -47 9 -26 -14 -25 -22 5 -52 70
-71 185 -46 185 41 0 21 -35 61 -54 61 -18 0 -50 37 -37 44 11 7 56 -9 66 -23
8 -14 16 -13 39 4 19 14 19 15 0 36 -22 25 -73 49 -104 49 -12 0 -32 -11 -45
-25z"/>
<path d="M15115 6051 c-4 -18 -14 -31 -27 -34 -17 -5 -20 -11 -15 -35 3 -16
-2 -54 -12 -86 -10 -32 -16 -69 -13 -82 4 -22 46 -54 71 -54 19 0 23 41 7 59
-15 17 -15 22 2 67 14 37 23 49 37 47 11 -1 23 4 27 10 13 20 9 47 -7 47 -13
0 -15 7 -9 36 5 26 3 39 -7 45 -27 17 -47 10 -54 -20z"/>
<path d="M15226 5972 c-16 -26 -75 -217 -69 -223 5 -4 18 -10 29 -13 20 -6 25
2 54 81 40 110 43 142 13 154 -12 4 -24 5 -27 1z"/>
<path d="M15503 5878 c-82 -230 -80 -219 -58 -234 29 -21 41 -17 51 18 15 52
40 48 48 -7 6 -40 12 -48 42 -62 18 -9 37 -13 41 -10 4 4 -1 39 -11 77 -21 80
-18 87 44 115 46 21 47 36 3 48 -25 8 -39 4 -77 -18 -25 -15 -46 -23 -46 -17
0 5 11 40 25 78 26 71 25 77 -11 88 -20 6 -25 -1 -51 -76z"/>
<path d="M15302 5892 c-46 -49 -56 -132 -21 -175 25 -32 90 -53 119 -37 30 16
7 58 -34 62 -27 3 -31 7 -34 36 -6 61 51 110 77 65 8 -14 14 -16 38 -7 15 5
28 16 28 23 0 23 -50 53 -99 58 -41 5 -48 3 -74 -25z"/>
<path d="M15703 5763 c-45 -36 -69 -147 -40 -183 23 -30 62 -50 97 -50 51 0
67 13 53 43 -9 19 -17 23 -40 20 -20 -3 -34 2 -47 16 -32 35 -10 41 58 16 l63
-24 12 25 c32 70 -11 143 -89 150 -33 4 -51 0 -67 -13z"/>
<path d="M15915 5713 c-4 -10 -20 -54 -35 -98 -15 -44 -31 -88 -35 -97 -5 -13
0 -20 21 -28 33 -13 35 -10 65 77 21 65 46 86 74 63 12 -10 22 -10 45 0 16 7
30 16 30 20 0 16 -31 40 -58 46 -15 3 -42 12 -60 20 -40 17 -38 18 -47 -3z"/>
<path d="M16092 5653 c-14 -26 -75 -214 -71 -217 2 -1 16 -7 31 -13 27 -12 27
-12 49 55 24 76 47 106 72 96 23 -8 22 -47 -4 -123 -12 -34 -19 -64 -16 -67 2
-3 17 -6 32 -7 25 -2 29 4 54 73 28 78 53 99 79 67 11 -13 -4 -83 -34 -161 -4
-10 33 -36 51 -36 2 0 17 42 34 93 25 75 30 99 22 120 -12 31 -58 57 -101 57
-17 0 -39 9 -50 20 -11 11 -31 20 -44 20 -14 0 -41 9 -60 21 -33 19 -35 19
-44 2z"/>
<path d="M16416 5462 c-14 -42 -26 -91 -26 -108 0 -38 35 -73 76 -76 16 -1 35
-8 42 -15 33 -32 49 -16 87 92 21 57 35 111 32 120 -4 8 -17 15 -31 15 -21 0
-27 -9 -46 -65 -26 -79 -43 -99 -71 -85 -24 14 -24 22 5 107 23 67 23 70 5 81
-36 23 -47 14 -73 -66z"/>
<path d="M16651 5425 c-56 -159 -53 -198 17 -220 32 -9 48 32 21 57 -17 17
-17 22 24 137 23 66 39 122 37 125 -3 2 -17 7 -31 11 -26 6 -27 4 -68 -110z"/>
<path d="M16771 5370 c-30 -31 -51 -83 -51 -129 0 -29 62 -90 93 -93 36 -2 71
3 80 12 5 4 3 18 -5 31 -10 18 -22 24 -47 24 -21 0 -38 6 -45 17 -18 29 1 32
65 9 33 -13 63 -20 66 -17 12 12 15 104 3 125 -13 25 -66 51 -104 51 -14 0
-38 -13 -55 -30z"/>
</g>
</svg>
